<svg width="83" height="83" viewBox="0 0 83 83" fill="none" xmlns="http://www.w3.org/2000/svg">
<circle cx="41.5" cy="41.5" r="40" stroke="white" stroke-width="3"/>
<path fill-rule="evenodd" clip-rule="evenodd" d="M34.625 23.875C28.1357 23.875 22.875 29.1357 22.875 35.625C22.875 42.1143 28.1357 47.375 34.625 47.375C41.1143 47.375 46.375 42.1143 46.375 35.625C46.375 29.1357 41.1143 23.875 34.625 23.875ZM19.9375 35.625C19.9375 27.5133 26.5133 20.9375 34.625 20.9375C42.7367 20.9375 49.3125 27.5133 49.3125 35.625C49.3125 43.7367 42.7367 50.3125 34.625 50.3125C26.5133 50.3125 19.9375 43.7367 19.9375 35.625Z" fill="white"/>
<path fill-rule="evenodd" clip-rule="evenodd" d="M46.375 35.625C39.8857 35.625 34.625 40.8857 34.625 47.375C34.625 53.8643 39.8857 59.125 46.375 59.125C52.8643 59.125 58.125 53.8643 58.125 47.375C58.125 40.8857 52.8643 35.625 46.375 35.625ZM31.6875 47.375C31.6875 39.2633 38.2633 32.6875 46.375 32.6875C54.4867 32.6875 61.0625 39.2633 61.0625 47.375C61.0625 55.4867 54.4867 62.0625 46.375 62.0625C38.2633 62.0625 31.6875 55.4867 31.6875 47.375Z" fill="white"/>
<path fill-rule="evenodd" clip-rule="evenodd" d="M38.4517 35.0454C39.0253 34.4718 39.9552 34.4718 40.5288 35.0454L46.9546 41.4712C47.5282 42.0448 47.5282 42.9747 46.9546 43.5483C46.381 44.1219 45.451 44.1219 44.8775 43.5483L38.4517 37.1225C37.8781 36.549 37.8781 35.619 38.4517 35.0454Z" fill="white"/>
<path fill-rule="evenodd" clip-rule="evenodd" d="M34.0454 39.4517C34.619 38.8781 35.549 38.8781 36.1225 39.4517L42.5483 45.8775C43.1219 46.451 43.1219 47.381 42.5483 47.9546C41.9747 48.5282 41.0448 48.5282 40.4712 47.9546L34.0454 41.5288C33.4718 40.9552 33.4718 40.0253 34.0454 39.4517Z" fill="white"/>
</svg>
