<svg width="83" height="83" viewBox="0 0 83 83" fill="none" xmlns="http://www.w3.org/2000/svg">
<circle cx="41.5" cy="41.5" r="40" stroke="white" stroke-width="3"/>
<path fill-rule="evenodd" clip-rule="evenodd" d="M37.0938 25.3438C37.0938 24.5326 37.7513 23.875 38.5625 23.875H44.4375C45.2487 23.875 45.9062 24.5326 45.9062 25.3438C45.9062 26.1549 45.2487 26.8125 44.4375 26.8125H38.5625C37.7513 26.8125 37.0938 26.1549 37.0938 25.3438Z" fill="white"/>
<path fill-rule="evenodd" clip-rule="evenodd" d="M37.0938 57.6562C37.0938 56.8451 37.7513 56.1875 38.5625 56.1875H44.4375C45.2487 56.1875 45.9062 56.8451 45.9062 57.6562C45.9062 58.4674 45.2487 59.125 44.4375 59.125H38.5625C37.7513 59.125 37.0938 58.4674 37.0938 57.6562Z" fill="white"/>
<path fill-rule="evenodd" clip-rule="evenodd" d="M50.3125 25.3438C50.3125 24.5326 50.9701 23.875 51.7812 23.875H56.1875C56.9666 23.875 57.7137 24.1845 58.2646 24.7354C58.8155 25.2863 59.125 26.0334 59.125 26.8125V31.2188C59.125 32.0299 58.4674 32.6875 57.6562 32.6875C56.8451 32.6875 56.1875 32.0299 56.1875 31.2188L56.1875 26.8125L51.7812 26.8125C50.9701 26.8125 50.3125 26.1549 50.3125 25.3438Z" fill="white"/>
<path fill-rule="evenodd" clip-rule="evenodd" d="M57.6562 37.0938C58.4674 37.0938 59.125 37.7513 59.125 38.5625V44.4375C59.125 45.2487 58.4674 45.9062 57.6562 45.9062C56.8451 45.9062 56.1875 45.2487 56.1875 44.4375V38.5625C56.1875 37.7513 56.8451 37.0938 57.6562 37.0938Z" fill="white"/>
<path fill-rule="evenodd" clip-rule="evenodd" d="M57.6562 50.3125C58.4674 50.3125 59.125 50.9701 59.125 51.7812V56.1875C59.125 56.9666 58.8155 57.7137 58.2646 58.2646C57.7137 58.8155 56.9666 59.125 56.1875 59.125H51.7812C50.9701 59.125 50.3125 58.4674 50.3125 57.6562C50.3125 56.8451 50.9701 56.1875 51.7812 56.1875H56.1875V51.7812C56.1875 50.9701 56.8451 50.3125 57.6562 50.3125Z" fill="white"/>
<path fill-rule="evenodd" clip-rule="evenodd" d="M25.3438 37.0938C26.1549 37.0938 26.8125 37.7513 26.8125 38.5625V44.4375C26.8125 45.2487 26.1549 45.9062 25.3438 45.9062C24.5326 45.9062 23.875 45.2487 23.875 44.4375V38.5625C23.875 37.7513 24.5326 37.0938 25.3438 37.0938Z" fill="white"/>
<path fill-rule="evenodd" clip-rule="evenodd" d="M25.3438 50.3125C26.1549 50.3125 26.8125 50.9701 26.8125 51.7812V56.1875H31.2188C32.0299 56.1875 32.6875 56.8451 32.6875 57.6562C32.6875 58.4674 32.0299 59.125 31.2188 59.125H26.8125C26.0334 59.125 25.2863 58.8155 24.7354 58.2646C24.1845 57.7137 23.875 56.9666 23.875 56.1875V51.7812C23.875 50.9701 24.5326 50.3125 25.3438 50.3125Z" fill="white"/>
<path fill-rule="evenodd" clip-rule="evenodd" d="M24.7354 24.7354C25.2863 24.1845 26.0334 23.875 26.8125 23.875H31.2188C32.0299 23.875 32.6875 24.5326 32.6875 25.3438C32.6875 26.1549 32.0299 26.8125 31.2188 26.8125L26.8125 26.8125L26.8125 31.2188C26.8125 32.0299 26.1549 32.6875 25.3438 32.6875C24.5326 32.6875 23.875 32.0299 23.875 31.2188V26.8125C23.875 26.0334 24.1845 25.2863 24.7354 24.7354Z" fill="white"/>
<path fill-rule="evenodd" clip-rule="evenodd" d="M31.2188 32.6875C31.2188 31.8763 31.8763 31.2188 32.6875 31.2188H50.3125C51.1237 31.2188 51.7812 31.8763 51.7812 32.6875V50.3125C51.7812 51.1237 51.1237 51.7812 50.3125 51.7812H32.6875C31.8763 51.7812 31.2188 51.1237 31.2188 50.3125V32.6875ZM34.1562 34.1562V48.8438H48.8438V34.1562H34.1562Z" fill="white"/>
</svg>
