<svg width="83" height="83" viewBox="0 0 83 83" fill="none" xmlns="http://www.w3.org/2000/svg">
<circle cx="41.5" cy="41.5" r="40" stroke="white" stroke-width="3"/>
<path fill-rule="evenodd" clip-rule="evenodd" d="M32.5007 47.2557C32.7593 48.0245 32.3456 48.8574 31.5767 49.116C29.0871 49.9532 27.764 52.0431 27.0563 54.1684C26.7752 55.0124 26.6054 55.8248 26.5034 56.4966C27.1752 56.3945 27.9876 56.2248 28.8316 55.9437C30.9568 55.236 33.0468 53.9129 33.884 51.4232C34.1426 50.6544 34.9755 50.2407 35.7443 50.4993C36.5132 50.7578 36.9269 51.5907 36.6683 52.3596C35.4126 56.0937 32.3068 57.8825 29.7597 58.7308C28.4729 59.1593 27.2683 59.3708 26.389 59.4763C25.9473 59.5293 25.5821 59.5561 25.3226 59.5698C25.1927 59.5766 25.089 59.5802 25.0149 59.582C24.9778 59.5829 24.9482 59.5834 24.9263 59.5837L24.8995 59.5839L24.8906 59.584L24.8873 59.584L24.8859 59.584C24.8853 59.584 24.8848 59.584 24.8848 58.1152C23.416 58.1152 23.416 58.1147 23.416 58.1141L23.416 58.1127L23.416 58.1094L23.4161 58.1005L23.4163 58.0737C23.4166 58.0518 23.4171 58.0222 23.418 57.9851C23.4198 57.911 23.4234 57.8072 23.4302 57.6774C23.4439 57.4179 23.4707 57.0527 23.5237 56.611C23.6292 55.7317 23.8407 54.5271 24.2692 53.2403C25.1175 50.6932 26.9062 47.5874 30.6404 46.3317C31.4093 46.0731 32.2422 46.4868 32.5007 47.2557ZM24.8848 58.1152H23.416C23.416 58.9264 24.0736 59.584 24.8848 59.584V58.1152Z" fill="white"/>
<path fill-rule="evenodd" clip-rule="evenodd" d="M56.8836 26.1164C55.1788 25.8705 50.9825 25.7779 46.6878 30.0726L35.2604 41.5L41.5 47.7397L52.9275 36.3122C57.2221 32.0176 57.1295 27.8212 56.8836 26.1164ZM57.3095 23.2099C54.965 22.8705 49.7386 22.8675 44.6107 27.9954L32.1447 40.4614C31.8692 40.7369 31.7145 41.1105 31.7145 41.5C31.7145 41.8895 31.8692 42.2631 32.1447 42.5386L40.4615 50.8554C41.035 51.4289 41.965 51.4289 42.5386 50.8554L55.0046 38.3894C60.1325 33.2615 60.1295 28.0351 59.7901 25.6905C59.7042 25.063 59.4153 24.4807 58.9673 24.0328C58.5193 23.5848 57.9371 23.2958 57.3095 23.2099Z" fill="white"/>
<path fill-rule="evenodd" clip-rule="evenodd" d="M51.8914 37.9566C52.7026 37.9566 53.3602 38.6142 53.3602 39.4254V51.2855L53.36 51.3065C53.3491 52.0779 53.035 52.814 52.486 53.3557L46.5587 59.3013C46.1824 59.6771 45.7112 59.9437 45.1952 60.0727C44.6793 60.2017 44.138 60.1882 43.6291 60.0337C43.1203 59.8791 42.6629 59.5893 42.3058 59.1952C41.949 58.8014 41.7058 58.3182 41.6019 57.797C41.6018 57.7966 41.602 57.7974 41.6019 57.797L40.0599 50.1055C39.9005 49.3102 40.416 48.5361 41.2113 48.3767C42.0067 48.2172 42.7807 48.7327 42.9401 49.5281L44.4828 57.2229L50.4227 51.2646V39.4254C50.4227 38.6142 51.0803 37.9566 51.8914 37.9566Z" fill="white"/>
<path fill-rule="evenodd" clip-rule="evenodd" d="M31.6936 29.64L31.7145 29.6398H43.5747C44.3858 29.6398 45.0434 30.2974 45.0434 31.1086C45.0434 31.9198 44.3858 32.5773 43.5747 32.5773H31.7353L31.7234 32.5894L31.7233 32.5894L25.7771 38.5173L25.7794 38.5177L33.472 40.0599C34.2673 40.2193 34.7828 40.9934 34.6233 41.7887C34.4639 42.584 33.6899 43.0995 32.8945 42.9401L25.2042 41.3984C25.2038 41.3983 25.2034 41.3982 25.2029 41.3981C24.6818 41.2942 24.1986 41.051 23.8048 40.6942C23.4107 40.3371 23.1209 39.8798 22.9664 39.3709C22.8118 38.862 22.7983 38.3207 22.9273 37.8048C23.0563 37.2888 23.3229 36.8176 23.6988 36.4413L23.701 36.4391L23.701 36.4391L29.6444 30.5141C30.1861 29.965 30.9221 29.651 31.6936 29.64Z" fill="white"/>
</svg>
