<svg width="29" height="29" viewBox="0 0 29 29" fill="none" xmlns="http://www.w3.org/2000/svg">
<path d="M1.9002 0.324951C1.48248 0.324951 1.08187 0.490888 0.786502 0.786258C0.491132 1.08163 0.325195 1.48224 0.325195 1.89995C0.325195 9.00112 3.14612 15.8114 8.16741 20.8327C13.1887 25.854 19.999 28.675 27.1002 28.675C27.5179 28.675 27.9185 28.509 28.2139 28.2136C28.5093 27.9183 28.6752 27.5177 28.6752 27.1V21.5875C28.6752 21.1697 28.5093 20.7691 28.2139 20.4738C27.9185 20.1784 27.5179 20.0125 27.1002 20.0125C25.1314 20.0125 23.2414 19.6975 21.4774 19.1147C20.9262 18.9415 20.3119 19.0675 19.8709 19.4927L16.4059 22.9577C11.9487 20.6897 8.2947 17.0515 6.0267 12.5785L9.4917 9.0977C9.9327 8.6882 10.0587 8.07395 9.88545 7.5227C9.3027 5.7587 8.9877 3.8687 8.9877 1.89995C8.9877 1.48224 8.82176 1.08163 8.52639 0.786258C8.23102 0.490888 7.83041 0.324951 7.4127 0.324951H1.9002ZM19.2252 0.324951V2.68745H24.7377L16.0752 11.35L17.6502 12.925L26.3127 4.26245V9.77495H28.6752V0.324951H19.2252Z" fill="#011136"/>
</svg>
