<svg width="83" height="83" viewBox="0 0 83 83" fill="none" xmlns="http://www.w3.org/2000/svg">
<circle cx="41.5" cy="41.5" r="40" stroke="white" stroke-width="3"/>
<path fill-rule="evenodd" clip-rule="evenodd" d="M18.4688 32.6875C18.4688 31.8763 19.1263 31.2188 19.9375 31.2188H36.0938C36.9049 31.2188 37.5625 31.8763 37.5625 32.6875C37.5625 33.4987 36.9049 34.1562 36.0938 34.1562H19.9375C19.1263 34.1562 18.4688 33.4987 18.4688 32.6875Z" fill="white"/>
<path fill-rule="evenodd" clip-rule="evenodd" d="M43.4375 32.6875C43.4375 31.8763 44.0951 31.2188 44.9062 31.2188H61.0625C61.8737 31.2188 62.5312 31.8763 62.5312 32.6875C62.5312 33.4987 61.8737 34.1562 61.0625 34.1562H44.9062C44.0951 34.1562 43.4375 33.4987 43.4375 32.6875Z" fill="white"/>
<path fill-rule="evenodd" clip-rule="evenodd" d="M40.5 29.75C38.8777 29.75 37.5625 31.0652 37.5625 32.6875C37.5625 34.3098 38.8777 35.625 40.5 35.625C42.1223 35.625 43.4375 34.3098 43.4375 32.6875C43.4375 31.0652 42.1223 29.75 40.5 29.75ZM34.625 32.6875C34.625 29.4428 37.2553 26.8125 40.5 26.8125C43.7447 26.8125 46.375 29.4428 46.375 32.6875C46.375 35.9322 43.7447 38.5625 40.5 38.5625C37.2553 38.5625 34.625 35.9322 34.625 32.6875Z" fill="white"/>
<path fill-rule="evenodd" clip-rule="evenodd" d="M24.3438 47.375C22.7214 47.375 21.4062 48.6902 21.4062 50.3125C21.4062 51.9348 22.7214 53.25 24.3438 53.25C25.9661 53.25 27.2812 51.9348 27.2812 50.3125C27.2812 48.6902 25.9661 47.375 24.3438 47.375ZM18.4688 50.3125C18.4688 47.0678 21.0991 44.4375 24.3438 44.4375C27.5884 44.4375 30.2188 47.0678 30.2188 50.3125C30.2188 53.5572 27.5884 56.1875 24.3438 56.1875C21.0991 56.1875 18.4688 53.5572 18.4688 50.3125Z" fill="white"/>
<path fill-rule="evenodd" clip-rule="evenodd" d="M56.6562 47.375C55.0339 47.375 53.7188 48.6902 53.7188 50.3125C53.7188 51.9348 55.0339 53.25 56.6562 53.25C58.2786 53.25 59.5938 51.9348 59.5938 50.3125C59.5938 48.6902 58.2786 47.375 56.6562 47.375ZM50.7812 50.3125C50.7812 47.0678 53.4116 44.4375 56.6562 44.4375C59.9009 44.4375 62.5312 47.0678 62.5312 50.3125C62.5312 53.5572 59.9009 56.1875 56.6562 56.1875C53.4116 56.1875 50.7812 53.5572 50.7812 50.3125Z" fill="white"/>
<path fill-rule="evenodd" clip-rule="evenodd" d="M43.4554 32.8964C43.6747 32.1154 44.4855 31.66 45.2665 31.8793C48.4383 32.7697 51.2973 34.5304 53.5201 36.9619C55.7428 39.3934 57.2403 42.3987 57.8432 45.6375C57.9916 46.4349 57.4654 47.2018 56.668 47.3502C55.8705 47.4986 55.1037 46.9725 54.9553 46.175C54.4528 43.4755 53.2046 40.9705 51.3519 38.9438C49.4993 36.9171 47.1162 35.4496 44.4725 34.7074C43.6916 34.4882 43.2362 33.6773 43.4554 32.8964Z" fill="white"/>
<path fill-rule="evenodd" clip-rule="evenodd" d="M37.5445 32.8964C37.7637 33.6773 37.3084 34.4882 36.5274 34.7074C33.8837 35.4496 31.5006 36.9171 29.648 38.9438C27.7953 40.9705 26.5471 43.4755 26.0447 46.175C25.8962 46.9725 25.1294 47.4986 24.332 47.3502C23.5345 47.2018 23.0083 46.4349 23.1568 45.6375C23.7596 42.3987 25.2571 39.3934 27.4799 36.9619C29.7026 34.5304 32.5617 32.7697 35.7334 31.8793C36.5144 31.66 37.3252 32.1154 37.5445 32.8964Z" fill="white"/>
</svg>
