<svg width="83" height="83" viewBox="0 0 83 83" fill="none" xmlns="http://www.w3.org/2000/svg">
<circle cx="41.5" cy="41.5" r="40" stroke="white" stroke-width="3"/>
<path fill-rule="evenodd" clip-rule="evenodd" d="M25.3438 53.25C26.1549 53.25 26.8125 53.9076 26.8125 54.7188V56.1875H28.2812C29.0924 56.1875 29.75 56.8451 29.75 57.6562C29.75 58.4674 29.0924 59.125 28.2812 59.125H26.8125C26.0334 59.125 25.2863 58.8155 24.7354 58.2646C24.1845 57.7137 23.875 56.9666 23.875 56.1875V54.7188C23.875 53.9076 24.5326 53.25 25.3438 53.25Z" fill="white"/>
<path fill-rule="evenodd" clip-rule="evenodd" d="M32.6875 34.1562C32.6875 33.3451 33.3451 32.6875 34.1562 32.6875H38.5625C39.3737 32.6875 40.0312 33.3451 40.0312 34.1562C40.0312 34.9674 39.3737 35.625 38.5625 35.625H34.1562C33.3451 35.625 32.6875 34.9674 32.6875 34.1562Z" fill="white"/>
<path fill-rule="evenodd" clip-rule="evenodd" d="M34.1562 57.6562C34.1562 56.8451 34.8138 56.1875 35.625 56.1875H38.5625C39.3737 56.1875 40.0312 56.8451 40.0312 57.6562C40.0312 58.4674 39.3737 59.125 38.5625 59.125H35.625C34.8138 59.125 34.1562 58.4674 34.1562 57.6562Z" fill="white"/>
<path fill-rule="evenodd" clip-rule="evenodd" d="M48.8438 42.9688C49.6549 42.9688 50.3125 43.6263 50.3125 44.4375V48.8438C50.3125 49.6549 49.6549 50.3125 48.8438 50.3125C48.0326 50.3125 47.375 49.6549 47.375 48.8438V44.4375C47.375 43.6263 48.0326 42.9688 48.8438 42.9688Z" fill="white"/>
<path fill-rule="evenodd" clip-rule="evenodd" d="M25.3438 42.9688C26.1549 42.9688 26.8125 43.6263 26.8125 44.4375V47.375C26.8125 48.1862 26.1549 48.8438 25.3438 48.8438C24.5326 48.8438 23.875 48.1862 23.875 47.375V44.4375C23.875 43.6263 24.5326 42.9688 25.3438 42.9688Z" fill="white"/>
<path fill-rule="evenodd" clip-rule="evenodd" d="M48.8438 53.25C49.6549 53.25 50.3125 53.9076 50.3125 54.7188V56.1875C50.3125 56.9666 50.003 57.7137 49.4521 58.2646C48.9012 58.8155 48.1541 59.125 47.375 59.125H45.9062C45.0951 59.125 44.4375 58.4674 44.4375 57.6562C44.4375 56.8451 45.0951 56.1875 45.9062 56.1875H47.375V54.7188C47.375 53.9076 48.0326 53.25 48.8438 53.25Z" fill="white"/>
<path fill-rule="evenodd" clip-rule="evenodd" d="M44.4375 34.1562C44.4375 33.3451 45.0951 32.6875 45.9062 32.6875H47.375C48.1541 32.6875 48.9012 32.997 49.4521 33.5479C50.003 34.0988 50.3125 34.8459 50.3125 35.625V37.0938C50.3125 37.9049 49.6549 38.5625 48.8438 38.5625C48.0326 38.5625 47.375 37.9049 47.375 37.0938L47.375 35.625L45.9062 35.625C45.0951 35.625 44.4375 34.9674 44.4375 34.1562Z" fill="white"/>
<path fill-rule="evenodd" clip-rule="evenodd" d="M24.7354 33.5479C25.2863 32.997 26.0334 32.6875 26.8125 32.6875H28.2812C29.0924 32.6875 29.75 33.3451 29.75 34.1562C29.75 34.9674 29.0924 35.625 28.2812 35.625L26.8125 35.625L26.8125 37.0938C26.8125 37.9049 26.1549 38.5625 25.3438 38.5625C24.5326 38.5625 23.875 37.9049 23.875 37.0938V35.625C23.875 34.8459 24.1845 34.0988 24.7354 33.5479Z" fill="white"/>
<path fill-rule="evenodd" clip-rule="evenodd" d="M33.5479 24.7354C34.0988 24.1845 34.8459 23.875 35.625 23.875H56.1875C56.9666 23.875 57.7137 24.1845 58.2646 24.7354C58.8155 25.2863 59.125 26.0334 59.125 26.8125V47.375C59.125 48.1541 58.8155 48.9012 58.2646 49.4521C57.7137 50.003 56.9666 50.3125 56.1875 50.3125H48.8438C48.0326 50.3125 47.375 49.6549 47.375 48.8438C47.375 48.0326 48.0326 47.375 48.8438 47.375H56.1875V26.8125H35.625L35.625 34.1562C35.625 34.9674 34.9674 35.625 34.1562 35.625C33.3451 35.625 32.6875 34.9674 32.6875 34.1562V26.8125C32.6875 26.0334 32.997 25.2863 33.5479 24.7354Z" fill="white"/>
</svg>
